# AST/ASF file generated using VICON BodyLanguage
# -----------------------------------------------
:version 1.10
:name VICON
:units
  mass 1.0
  length 0.45
  angle deg
:documentation
   .ast/.asf automatically generated from VICON data using
   VICON BodyBuilder and BodyLanguage model FoxedUp or BRILLIANT.MOD
:root
   order TX TY TZ RX RY RZ
   axis XYZ
   position 0 0 0  
   orientation 0 0 0 
:bonedata
  begin
     id 1 
     name lhipjoint
     direction 0.570549 -0.739093 0.358072 
     length 2.41801 
     axis 0 0 0  XYZ
  end
  begin
     id 2 
     name lfemur
     direction 0.34202 -0.939693 0  
     length 7.44434  
     axis 0 0 20  XYZ
    dof rx ry rz
    limits (-160.0 20.0)
           (-70.0 70.0)
           (-60.0 70.0)
  end
  begin
     id 3 
     name ltibia
     direction 0.34202 -0.939693 0   
     length 7.60047   
     axis 0 0 20   XYZ
    dof rx
    limits (-10.0 170.0)
  end
  begin
     id 4 
     name lfoot
     direction 0.0909041 -0.249757 0.964032   
     length 2.03437   
     axis -90 7.62852e-016 20   XYZ
    dof rx rz
    limits (-45.0 90.0)
           (-70.0 20.0)
  end
  begin
     id 5 
     name ltoes
     direction 1.53547e-011 -4.2174e-011 1   
     length 1.02054   
     axis -90 7.62852e-016 20   XYZ
    dof rx
    limits (-90.0 20.0)
  end
  begin
     id 6 
     name rhipjoint
     direction -0.558096 -0.746754 0.361784   
     length 2.3932  
     axis 0 0 0  XYZ 
  end
  begin
     id 7 
     name rfemur
     direction -0.34202 -0.939693 0   
     length 7.3886   
     axis 0 0 -20   XYZ
    dof rx ry rz
    limits (-160.0 20.0)
           (-70.0 70.0)
           (-70.0 60.0)
  end
  begin
     id 8 
     name rtibia
     direction -0.34202 -0.939693 0   
     length 7.4839   
     axis 0 0 -20   XYZ
    dof rx
    limits (-10.0 170.0)
 end
 begin
     id 9 
     name rfoot
     direction -0.114619 -0.314914 0.942174   
     length 2.25127  
     axis -90 -7.62852e-016 -20   XYZ
    dof rx rz
    limits (-45.0 90.0)
           (-20.0 70.0)
  end
  begin
     id 10 
     name rtoes
     direction -1.53518e-011 -4.21881e-011 1   
     length 1.11821   
     axis -90 -7.62852e-016 -20   XYZ
    dof rx
    limits (-90.0 20.0)
  end
  begin
     id 11 
     name lowerback
     direction -0.00902269 0.996426 -0.0839821   
     length 2.25052   
     axis 0 0 0   XYZ
    dof rx ry rz
    limits (-20.0 45.0)
           (-30.0 30.0)
           (-30.0 30.0)
  end
  begin
     id 12 
     name upperback
     direction 0.0370973 0.999169 -0.0168941   
     length 2.24876   
     axis 0 0 0   XYZ
    dof rx ry rz
    limits (-20.0 45.0)
           (-30.0 30.0)
           (-30.0 30.0)
  end
  begin
     id 13 
     name thorax
     direction 0.0402726 0.998931 0.0227027   
     length 2.26408   
     axis 0 0 0   XYZ
    dof rx ry rz
    limits (-20.0 45.0)
           (-30.0 30.0)
           (-30.0 30.0)
  end
  begin
     id 14 
     name lowerneck
     direction -0.0733697 0.98508 0.155675   
     length 1.58204   
     axis 0 0 0   XYZ
    dof rx ry rz
    limits (-20.0 45.0)
           (-30.0 30.0)
           (-30.0 30.0)
  end
  begin
     id 15 
     name upperneck
     direction 0.0426554 0.993501 -0.105526   
     length 1.61222   
     axis 0 0 0   XYZ
    dof rx ry rz
    limits (-20.0 45.0)
           (-30.0 30.0)
           (-30.0 30.0)
  end
  begin
     id 16
     name head
     direction 0.020792 0.998384 -0.0528868  
     length 1.61527  
     axis 0 0 0   XYZ
    dof rx ry rz
    limits (-20.0 45.0)
           (-30.0 30.0)
           (-30.0 30.0)
  end
  begin
     id 17 
     name lclavicle
     direction 0.967109 0.155462 -0.201325  
     length 3.59357  
     axis 0 0 0   XYZ
    dof ry rz
    limits (-20.0 10.0)
           (0.0 20.0)
  end
  begin
     id 18 
     name lhumerus
     direction 1 -4.48968e-011 2.38195e-027   
     length 5.38154   
     axis 180 -30 -90   XYZ
    dof rx ry rz
    limits (-60.0 90.0)
           (-90.0 90.0)
           (-90.0 90.0)
  end
  begin
     id 19
     name lradius
     direction 1 -4.48961e-011 4.85371e-027   
     length 3.33312   
     axis 180 -30 -90   XYZ
    dof rx
    limits (-10.0 170.0)
  end
  begin
     id 20
     name lwrist
     direction 1 -4.48961e-011 4.76515e-027   
     length 1.66656   
     axis -3.27502e-015 90 90   XYZ
    dof ry
    limits (-180.0 0.0)
 end
  begin
     id 21 
     name lhand
     direction 1 -4.48951e-011 9.53074e-027   
     length 0.710789   
     axis -6.08098e-015 90 90   XYZ
    dof rx rz
    limits (-90.0 90.0)
           (-45.0 45.0)
  end
  begin
     id 22 
     name lfingers
     direction 1 -4.48953e-011 1.90613e-026   
     length 0.573057   
     axis -1.21619e-014 90 90   XYZ
    dof rx
    limits (0.0 90.0)
  end
  begin
     id 23
     name lthumb
     direction 0.707107 -6.34973e-011 0.707107   
     length 0.822798   
     axis -90 45 -9.86923e-015   XYZ
    dof rx rz
    limits (-45.0 45.0)
           (-45.0 45.0)
  end
  begin
     id 24 
     name rclavicle
     direction -0.9585 0.265289 -0.104398   
     length 3.42039  
     axis 0 0 0   XYZ 
    dof ry rz
    limits (-10.0 20.0)
           (-20.0 0.0)
  end
  begin
     id 25 
     name rhumerus
     direction -1 -4.48977e-011 2.21478e-027  
     length 5.16954   
     axis 180 30 90   XYZ
    dof rx ry rz
    limits (-90.0 60.0)
           (-90.0 90.0)
           (-90.0 90.0)
  end
  begin
     id 26 
     name rradius
     direction -1 -4.48967e-011 5.63677e-027   
     length 3.38287   
     axis 180 30 90   XYZ
    dof rx
    limits (-10.0 170.0)
  end
  begin
     id 27 
     name rwrist
     direction -1 -4.48967e-011 4.76501e-027   
     length 1.69144   
     axis -3.27502e-015 -90 -90   XYZ
    dof ry
    limits (-180.0 0.0)
  end
  begin
     id 28
     name rhand
     direction -1 -4.48902e-011 9.53292e-027   
     length 0.817967   
     axis -6.08098e-015 -90 -90   XYZ
    dof rx rz
    limits (-90.0 90.0)
           (-45.0 45.0)
  end
  begin
     id 29
     name rfingers
     direction -1 -4.49012e-011 1.90561e-026   
     length 0.659466   
     axis -1.21619e-014 -90 -90   XYZ
    dof rx
    limits (0.0 90.0)
  end
  begin
     id 30
     name rthumb
     direction -0.707107 -6.34944e-011 0.707107   
     length 0.946865   
     axis -90 -45 9.86923e-015   XYZ
    dof rx rz
    limits (-45.0 45.0)
           (-45.0 45.0)
  end
:hierarchy
  begin
    root lhipjoint rhipjoint lowerback
    lhipjoint lfemur
    lfemur ltibia
    ltibia lfoot
    lfoot ltoes
    rhipjoint rfemur
    rfemur rtibia
    rtibia rfoot
    rfoot rtoes
    lowerback upperback
    upperback thorax
    thorax lowerneck lclavicle rclavicle
    lowerneck upperneck
    upperneck head
    lclavicle lhumerus
    lhumerus lradius
    lradius lwrist
    lwrist lhand lthumb
    lhand lfingers
    rclavicle rhumerus
    rhumerus rradius
    rradius rwrist
    rwrist rhand rthumb
    rhand rfingers
  end

#!OML:ASF F:\twosubjects\two\wednesday\Session 1\Justin1.ASF
:FULLY-SPECIFIED
:DEGREES
1
root 13.6063 17.4221 -16.7182 1.13136 -5.68086 -2.05962
lowerback 3.07657 2.80265 0.805399
upperback 2.74925 3.74752 0.113363
thorax 1.14162 1.8849 -0.407834
lowerneck -15.309 -3.53152 -11.2403
upperneck 20.4485 -3.73929 7.26406
head 9.31846 -1.84024 3.91904
rclavicle 1.02871e-014 6.16232e-015
rhumerus -58.4125 43.1719 -100.177
rradius 57.2531
rwrist -22.3873
rhand 0 0
rfingers 0
rthumb 0 0
lclavicle 1.02871e-014 6.16232e-015
lhumerus -36.3103 9.83756 74.5768
lradius 33.0829
lwrist -12.482
lhand 6.00785 35.9214
lfingers 7.12502
lthumb 31.3308 63.2593
rfemur 0.579037 4.65288 21.9944
rtibia 49.2976
rfoot 22.1083 -3.00057
rtoes 15.2576
lfemur -24.5544 4.40558 -19.1905
ltibia 31.3153
lfoot -6.96531 -2.56709
ltoes -2.30437
2
root 13.6182 17.4382 -16.5571 0.930462 -5.97793 -1.57874
lowerback 3.13678 2.88017 0.256935
upperback 3.02313 3.83943 0.0712083
thorax 1.35743 1.92295 -0.142431
lowerneck -16.1807 -3.51946 -11.1492
upperneck 20.6648 -3.62661 7.14993
head 9.54042 -1.78042 3.87918
rclavicle -1.28216e-014 1.19271e-015
rhumerus -57.6772 43.4786 -99.5464
rradius 57.2224
rwrist -22.3054
rhand 0 0
rfingers 0
rthumb 0 0
lclavicle -1.28216e-014 1.19271e-015
lhumerus -35.7995 9.54388 74.76
lradius 33.0848
lwrist -12.5572
lhand 6.34409 35.9018
lfingers 7.12502
lthumb 31.6511 63.1771
rfemur -1.09117 4.81201 21.3981
rtibia 52.0694
rfoot 21.9598 -4.22318
rtoes 12.8004
lfemur -23.6095 4.60468 -19.7549
ltibia 31.14
lfoot -7.52767 -2.35815
ltoes -2.8563
3
root 13.6387 17.4551 -16.3916 0.570936 -5.94248 -0.978627
lowerback 3.30533 2.82454 -0.286503
upperback 3.18664 3.75519 -0.0465177
thorax 1.4041 1.87216 0.0365825
lowerneck -17.2116 -3.46881 -11.0817
upperneck 21.4034 -3.48309 7.15043
head 9.97755 -1.70109 3.90099
rclavicle 6.70898e-016 -2.78299e-015
rhumerus -57.682 43.9333 -99.5994
rradius 57.3537
rwrist -22.1911
rhand 0 0
rfingers 0
rthumb 0 0
lclavicle 6.70898e-016 -2.78299e-015
lhumerus -35.2578 9.49145 74.7005
lradius 32.4066
lwrist -12.8135
lhand 6.08429 34.9514
lfingers 7.12502
lthumb 31.4036 62.2752
rfemur -2.36546 4.58762 20.6294
rtibia 54.5058
rfoot 21.1608 -5.53253
rtoes 11.3423
lfemur -22.3967 4.49896 -20.4903
ltibia 30.7035
lfoot -7.98056 -2.14661
ltoes -3.47499
4
root 13.6716 17.4701 -16.2108 0.127673 -5.49945 -0.268226
lowerback 3.51108 2.59608 -0.77027
upperback 3.26373 3.44064 -0.218656
thorax 1.35155 1.70782 0.128009
lowerneck -16.8246 -3.3746 -11.5234
upperneck 21.1057 -3.36971 7.58862
head 9.80275 -1.63801 4.14304
rclavicle -5.82191e-014 2.76311e-014
rhumerus -58.0241 44.4715 -99.9032
rradius 57.5706
rwrist -22.256
rhand 0 0
rfingers 0
rthumb 0 0
lclavicle -5.82191e-014 2.76311e-014
lhumerus -35.155 9.53353 74.4882
lradius 32.1312
lwrist -13.3759
lhand 6.2024 34.3404
lfingers 7.12502
lthumb 31.5162 61.6422
rfemur -3.33907 3.83087 19.6023
rtibia 56.7931
rfoot 19.7754 -6.60282
rtoes 12.5342
lfemur -21.1064 4.03792 -21.4351
ltibia 30.322
lfoot -8.47119 -1.96973
ltoes -4.13614
5
root 13.6942 17.4935 -16.0381 -0.0215044 -5.67602 -0.0312704
lowerback 3.50092 2.605 -1.01349
upperback 3.35385 3.44732 -0.155699
thorax 1.43195 1.70517 0.33049
lowerneck -16.5737 -3.36346 -11.8051
upperneck 20.7035 -3.31105 7.66926
head 9.61495 -1.62282 4.21782
rclavicle -1.82261e-014 7.60351e-015
rhumerus -57.7964 44.8664 -99.5816
rradius 57.5693
rwrist -22.2188
rhand 0 0
rfingers 0
rthumb 0 0
lclavicle -1.82261e-014 7.60351e-015
lhumerus -34.9154 9.09112 74.7752
lradius 32.3108
lwrist -13.7525
lhand 6.78845 35.5868
lfingers 7.12502
lthumb 32.0743 62.7778
rfemur -4.77481 3.62802 19.1774
rtibia 58.9379
rfoot 18.4562 -7.57301
rtoes 13.8357
lfemur -20.1116 4.06527 -21.8089
ltibia 29.9198
lfoot -8.9258 -1.6579
ltoes -4.41245
6
root 13.7041 17.5211 -15.8726 -0.125561 -6.12345 -0.381762
lowerback 3.62133 2.76693 -0.697333
upperback 3.34707 3.66672 0.0393641
thorax 1.36189 1.81912 0.342324
lowerneck -16.153 -3.31301 -11.6623
upperneck 20.3993 -3.25886 7.41767
head 9.41836 -1.61727 4.10401
rclavicle 6.85248e-014 7.40473e-015
rhumerus -57.6656 44.9836 -99.3725
rradius 57.5008
rwrist -22.0043
rhand 0 0
rfingers 0
rthumb 0 0
lclavicle 6.85248e-014 7.40473e-015
lhumerus -34.6507 8.31145 75.1504
lradius 32.1321
lwrist -14.1372
lhand 7.19847 36.5327
lfingers 7.12502
lthumb 32.4646 63.6444
rfemur -6.29833 3.71665 19.5707
rtibia 60.9341
rfoot 17.0822 -8.66995
rtoes 14.9121
lfemur -19.1529 4.28162 -21.4481
ltibia 29.5643
lfoot -9.42963 -1.2576
ltoes -3.86591
7
root 13.7145 17.5351 -15.7077 -0.381339 -6.20563 -0.430441
lowerback 3.84833 2.82184 -0.586563
upperback 3.35545 3.74018 0.0686765
thorax 1.2483 1.85806 0.296848
lowerneck -16.5431 -3.23384 -10.9149
upperneck 20.8974 -3.18373 6.84155
head 9.63439 -1.58728 3.79334
rclavicle 1.40516e-014 -3.60297e-015
rhumerus -57.5359 44.9604 -99.2771
rradius 57.4895
rwrist -21.918
rhand 0 0
rfingers 0
rthumb 0 0
lclavicle 1.40516e-014 -3.60297e-015
lhumerus -34.4275 7.45161 75.301
lradius 31.7694
lwrist -14.7199
lhand 7.52702 36.4133
lfingers 7.12502
lthumb 32.7772 63.4603
rfemur -7.58664 3.3578 19.5807
rtibia 62.7428
rfoot 15.362 -9.49353
rtoes 16.8392
lfemur -18.0704 4.12665 -21.4212
ltibia 29.2334
lfoot -9.8946 -0.906683
ltoes -3.52806
8
root 13.7293 17.541 -15.5491 -0.544136 -5.99059 -0.122504
lowerback 3.83615 2.72533 -0.864817
upperback 3.51274 3.606 0.0010523
thorax 1.40563 1.78535 0.39173
lowerneck -16.6559 -3.28925 -11.0407
upperneck 21.0513 -3.27593 7.07408
head 9.72467 -1.61485 3.88843
rclavicle -4.51738e-014 -1.0635e-014
rhumerus -56.9723 45.1744 -98.9224
rradius 57.4386
rwrist -22.0873
rhand 0 0
rfingers 0
rthumb 0 0
lclavicle -4.51738e-014 -1.0635e-014
lhumerus -33.7772 6.71382 75.4224
lradius 31.3451
lwrist -14.8254
lhand 7.22381 35.6276
lfingers 7.12502
lthumb 32.4887 62.7344
rfemur -8.94999 2.56812 19.1153
rtibia 64.3121
rfoot 13.8859 -9.83068
rtoes 16.408
lfemur -17.1847 3.81016 -21.8464
ltibia 28.926
lfoot -10.0081 -0.724049
ltoes -3.45133
9
root 13.7438 17.5518 -15.3849 -0.765844 -5.34945 0.20395
lowerback 3.94685 2.45655 -1.19412
upperback 3.6182 3.2389 0.0298845
thorax 1.43755 1.5943 0.612082
lowerneck -16.2343 -3.26255 -11.4419
upperneck 20.6176 -3.24749 7.4237
head 9.50349 -1.59604 4.07569
rclavicle -4.11352e-015 2.79075e-015
rhumerus -56.7418 45.6099 -98.6875
rradius 57.5107
rwrist -22.3638
rhand 0 0
rfingers 0
rthumb 0 0
lclavicle -4.11352e-015 2.79075e-015
lhumerus -33.2766 6.65488 75.5716
lradius 31.0795
lwrist -15.0094
lhand 6.81307 34.8869
lfingers 7.12502
lthumb 32.0977 62.0732
rfemur -10.0379 1.52353 18.6765
rtibia 65.5789
rfoot 12.2013 -10.2937
rtoes 12.9697
lfemur -16.2134 3.36723 -22.3315
ltibia 28.5899
lfoot -10.1586 -0.766015
ltoes -2.66302
10
root 13.7513 17.5724 -15.2208 -0.875041 -5.13411 0.0952436
lowerback 4.22691 2.32995 -1.17313
upperback 3.4411 3.06468 0.16545
thorax 1.096 1.509 0.726672
lowerneck -15.5217 -3.05186 -11.2924
upperneck 20.1741 -3.05519 7.40274
head 9.19271 -1.50288 4.05902
rclavicle 1.31012e-014 -1.31695e-014
rhumerus -57.1198 45.871 -98.8797
rradius 57.6634
rwrist -22.5289
rhand 0 0
rfingers 0
rthumb 0 0
lclavicle 1.31012e-014 -1.31695e-014
lhumerus -33.3604 6.67672 75.5772
lradius 31.2045
lwrist -15.3466
lhand 6.62145 34.9653
lfingers 7.12502
lthumb 31.9153 62.1882
rfemur -11.2371 1.22052 18.8604
rtibia 66.6131
rfoot 10.3454 -11.2399
rtoes 11.1324
lfemur -15.245 3.11929 -22.2758
ltibia 28.167
lfoot -10.6836 -0.63624
ltoes -3.64935
11
root 13.7585 17.5902 -15.0574 -0.885859 -5.393 0.0628749
lowerback 4.36038 2.39114 -1.19003
upperback 3.19971 3.14237 0.140753
thorax 0.772188 1.55085 0.695299
lowerneck -15.2816 -2.84581 -10.7104
upperneck 20.2303 -2.91403 7.26421
head 9.13955 -1.41171 3.93179
rclavicle 2.28882e-014 -6.3549e-015
rhumerus -57.492 45.8338 -99.3672
rradius 57.547
rwrist -22.6303
rhand 0 0
rfingers 0
rthumb 0 0
lclavicle 2.28882e-014 -6.3549e-015
lhumerus -33.3966 6.3235 75.3752
lradius 31.2561
lwrist -15.4817
lhand 6.43539 35.2971
lfingers 7.12502
lthumb 31.7381 62.5553
rfemur -12.577 1.28474 18.9124
rtibia 67.4882
rfoot 8.78409 -11.9337
rtoes 12.0388
lfemur -14.3365 3.31174 -22.2976
ltibia 27.6779
lfoot -11.1592 -0.444132
ltoes -5.95566
12
root 13.7741 17.5951 -14.8871 -1.03713 -5.16613 0.766388
lowerback 4.29037 2.35861 -1.89907
upperback 3.20827 3.07825 0.00343434
thorax 0.792756 1.50871 0.955465
lowerneck -15.3841 -2.84371 -10.3052
upperneck 20.3065 -2.95244 7.03122
head 9.17847 -1.4223 3.77822
rclavicle 1.90088e-014 -8.39865e-015
rhumerus -57.2634 45.7052 -99.1956
rradius 57.4406
rwrist -22.8203
rhand 0 0
rfingers 0
rthumb 0 0
lclavicle 1.90088e-014 -8.39865e-015
lhumerus -32.9208 5.97079 75.4339
lradius 30.9984
lwrist -15.4975
lhand 6.39462 35.244
lfingers 7.12502
lthumb 31.6993 62.5098
rfemur -13.6647 0.60824 17.9675
rtibia 68.2087
rfoot 7.28521 -11.9913
rtoes 12.3683
lfemur -13.3489 3.59717 -23.2113
ltibia 27.1878
lfoot -11.5366 -0.652822
ltoes -6.73283
